<svg width="226" height="201" viewBox="0 0 226 201" fill="none" xmlns="http://www.w3.org/2000/svg">
<g opacity="0.2">
<path fill-rule="evenodd" clip-rule="evenodd" d="M93.4487 159.753C93.4971 159.77 93.5458 159.787 93.5946 159.804L166.742 184.991C171.964 186.789 177.655 184.013 179.453 178.791L216.019 72.597C217.817 67.3751 215.041 61.6842 209.819 59.8862L150.91 39.6021L151 42.8058L208.843 62.7227C212.498 63.9814 214.441 67.965 213.182 71.6203L176.617 177.815C175.358 181.47 171.375 183.413 167.719 182.154L98.2834 158.246L93.4487 159.753Z" fill="black"/>
<path d="M155.452 97.9867C162.08 94.3893 169.838 95.8658 174.8 100.483M179.793 105.476C180.417 107.349 181.288 109.189 181.041 111.717" stroke="#999999"/>
<path fill-rule="evenodd" clip-rule="evenodd" d="M7.57098 48.723L56.8412 32.7141V35.8685L8.49803 51.5761C4.82125 52.7708 2.80909 56.7199 4.00375 60.3967L39.0962 168.4C40.2909 172.077 44.24 174.089 47.9167 172.894L115.463 150.947L116.82 153.661L48.8438 175.748C43.5912 177.454 37.9497 174.58 36.243 169.327L1.15058 61.3237C-0.556072 56.0712 2.31844 50.4296 7.57098 48.723Z" fill="black"/>
<line x1="31.5751" y1="88.9197" x2="55.2916" y2="81.4303" stroke="#999999" stroke-width="2"/>
<line x1="36.5706" y1="105.146" x2="56.5424" y2="98.9047" stroke="#999999" stroke-width="2"/>
<line x1="41.5203" y1="121.388" x2="55.2509" y2="116.395" stroke="#999999" stroke-width="2"/>
<line x1="46.5388" y1="137.606" x2="65.2623" y2="131.365" stroke="#999999" stroke-width="2"/>
<line x1="51.5317" y1="153.833" x2="85.2341" y2="142.599" stroke="#999999" stroke-width="2"/>
<path d="M140.473 3.74472H66.8269C62.0012 3.74472 58.0892 7.65671 58.0892 12.4824H54.3445C54.3445 5.58856 59.933 0 66.8269 0H140.473C147.367 0 152.955 5.58856 152.955 12.4824V67.4049H149.211V12.4824C149.211 7.65671 145.299 3.74472 140.473 3.74472Z" fill="black"/>
<path d="M118.005 129.817H66.8269C62.0012 129.817 58.0892 125.905 58.0892 121.079V22.4683H54.3445V121.079C54.3445 127.973 59.933 133.562 66.8269 133.562H118.005V129.817Z" fill="black"/>
<line x1="93.2057" y1="23.5506" x2="114.426" y2="44.7707" stroke="#999999" stroke-width="4"/>
<line x1="94.1222" y1="44.7706" x2="115.342" y2="23.5505" stroke="#999999" stroke-width="4"/>
<line x1="75.5645" y1="62.6602" x2="132.983" y2="62.6602" stroke="#999999" stroke-width="2"/>
<line x1="75.5645" y1="78.8872" x2="91.7916" y2="78.8872" stroke="#999999" stroke-width="2"/>
<line x1="105.522" y1="78.8872" x2="121.749" y2="78.8872" stroke="#999999" stroke-width="2"/>
<line x1="74.3164" y1="95.8628" x2="108.019" y2="95.8628" stroke="#999999" stroke-width="3"/>
<line x1="75.5645" y1="112.59" x2="86.7986" y2="112.59" stroke="#999999" stroke-width="2"/>
<line x1="90.5435" y1="112.59" x2="99.2811" y2="112.59" stroke="#999999" stroke-width="2"/>
<circle cx="30.6279" cy="68.6533" r="6.48944" stroke="#999999" stroke-width="2"/>
<circle cx="162.941" cy="113.59" r="27.7095" stroke="#999999" stroke-width="2"/>
<path fill-rule="evenodd" clip-rule="evenodd" d="M209.126 113.59C209.126 123.28 206.142 132.273 201.043 139.7L222.892 161.549C226.548 165.205 226.548 171.132 222.892 174.788C219.236 178.444 213.308 178.444 209.652 174.788L187.546 152.682C180.423 157.175 171.986 159.774 162.941 159.774C137.434 159.774 116.757 139.097 116.757 113.59C116.757 88.0824 137.434 67.4048 162.941 67.4048C188.449 67.4048 209.126 88.0824 209.126 113.59ZM162.941 142.299C178.797 142.299 191.651 129.445 191.651 113.59C191.651 97.7339 178.797 84.8802 162.941 84.8802C147.085 84.8802 134.232 97.7339 134.232 113.59C134.232 129.445 147.085 142.299 162.941 142.299Z" fill="#00C492"/>
<rect x="19.229" y="6.48682" width="4.99296" height="13.8472" rx="2.49648" transform="rotate(-45 19.229 6.48682)" fill="#999999"/>
<rect x="197.842" y="6.09644" width="4.99296" height="21.113" rx="2.49648" transform="rotate(45 197.842 6.09644)" fill="#999999"/>
<rect x="70.7192" y="179.746" width="4.99296" height="21.113" rx="2.49648" transform="rotate(24.8875 70.7192 179.746)" fill="#999999"/>
<rect x="15.1687" y="131.95" width="4.99296" height="13.512" rx="2.49648" transform="rotate(69.7427 15.1687 131.95)" fill="#999999"/>
<rect x="144.814" y="191.894" width="4.99296" height="8.23455" rx="2.49648" transform="rotate(-27.0625 144.814 191.894)" fill="#999999"/>
</g>
</svg>
