<svg width="224" height="206" viewBox="0 0 224 206" fill="none" xmlns="http://www.w3.org/2000/svg">
<g opacity="0.2">
<path d="M89.423 168.298L125.486 161.288L126.593 165.082L90.5381 172.09L89.423 168.298Z" fill="black"/>
<path d="M77.966 170.525L54.5618 175.075C49.5847 176.042 44.7657 172.792 43.7983 167.815L19.5377 43.0049C18.5703 38.0278 21.8208 33.2088 26.7978 32.2414L47.0631 28.3022L46.3982 24.4233L26.0471 28.3792C18.937 29.7613 14.2935 36.6455 15.6755 43.7557L39.9361 168.565C41.3182 175.676 48.2024 180.319 55.3126 178.937L79.0811 174.317L77.966 170.525Z" fill="black"/>
<line x1="121.969" y1="41.2798" x2="148.199" y2="41.2798" stroke="#999999" stroke-width="4"/>
<line x1="82.4224" y1="82.5688" x2="149.712" y2="82.5688" stroke="#999999" stroke-width="2"/>
<line x1="82.4224" y1="101.53" x2="101.439" y2="101.53" stroke="#999999" stroke-width="2"/>
<line x1="117.53" y1="101.53" x2="136.547" y2="101.53" stroke="#999999" stroke-width="2"/>
<line x1="80.9597" y1="121.45" x2="120.456" y2="121.45" stroke="#999999" stroke-width="3"/>
<line x1="82.4224" y1="140.912" x2="95.5878" y2="140.912" stroke="#999999" stroke-width="2"/>
<line x1="99.9763" y1="140.912" x2="110.216" y2="140.912" stroke="#999999" stroke-width="2"/>
<path d="M95.7395 35.4106C92.4353 38.4879 90.1136 39.6435 84.5918 40.0009C83.3285 46.3123 83.4032 49.908 84.5918 56.3946C89.6218 60.3515 91.9442 61.7286 95.7395 63.6078C100.704 61.2666 103.029 59.5617 106.231 55.7389C107.28 49.5926 107.13 46.1471 106.231 40.0009C101.409 39.7847 99.0434 38.9228 95.7395 35.4106Z" fill="#00C492"/>
<path d="M72.1829 13.5564H158.49C164.145 13.5564 168.729 18.1276 168.729 23.7665V75.4113H173.118V23.7665C173.118 15.711 166.569 9.18066 158.49 9.18066H72.1829C64.104 9.18066 57.5547 15.711 57.5547 23.7665H61.9432C61.9432 18.1276 66.5277 13.5564 72.1829 13.5564Z" fill="black"/>
<path d="M72.1829 160.873H132.159V165.249H72.1829C64.104 165.249 57.5547 158.719 57.5547 150.663V35.4351H61.9432V150.663C61.9432 156.302 66.5277 160.873 72.1829 160.873Z" fill="black"/>
<rect x="18.3606" y="2.72314" width="3.93449" height="11.8035" rx="1.96725" transform="rotate(-43.7947 18.3606 2.72314)" fill="#999999"/>
<rect x="201.822" y="7.28906" width="3.93449" height="15.738" rx="1.96725" transform="rotate(45.5008 201.822 7.28906)" fill="#999999"/>
<rect x="1.22998" y="145.135" width="3.93449" height="14.02" rx="1.96725" transform="rotate(-108.22 1.22998 145.135)" fill="#999999"/>
<rect x="66.5056" y="205.282" width="3.93449" height="10.9795" rx="1.96725" transform="rotate(-154.76 66.5056 205.282)" fill="#999999"/>
<path d="M187.544 89.8376C183.907 90.3417 179.019 82.8429 177.052 79.3456C169.708 77.7718 160.658 91.8049 156.724 99.6738C154.257 111.898 160.27 146.627 181.642 142.298C201.805 138.213 201.364 109.273 199.347 99.0181C199.413 95.0765 193.553 89.0049 187.544 89.8376Z" fill="#00C492"/>
<path d="M162.626 146.232C150.145 150.831 144.92 154.757 137.051 163.937C132.461 171.15 133.611 177.677 135.74 184.921L220.331 184.265C223.224 175.866 226.889 170.495 220.331 161.314C213.313 153.813 208.307 150.394 196.724 146.232C189.18 152.327 185.443 155.912 179.675 162.626C173.666 157.047 170.018 153.559 162.626 146.232Z" fill="#00C492"/>
</g>
</svg>
