<svg width="500" height="500" viewBox="0 0 500 500" fill="none" xmlns="http://www.w3.org/2000/svg">
<g clip-path="url(#clip0_738_2373)">
<g clip-path="url(#clip1_738_2373)">
<path opacity="0.1" d="M61.9726 111.745C59.066 112.949 56.083 114.495 54.4857 117.204C52.794 120.067 52.9965 123.621 53.3114 126.932C56.056 155.652 63.2864 186.196 50.8008 212.212C44.7403 224.833 34.6033 234.947 26.5406 246.409C18.4779 257.871 12.3903 272.182 16.1337 285.665C20.705 302.142 37.7663 311.276 49.2666 323.956C56.7939 332.246 62.0716 342.319 69.095 351.04C76.1184 359.762 85.7424 367.445 96.9546 367.957C113.08 368.698 126.2 354.792 142.011 351.571C158.208 348.273 174.518 356.666 187.651 366.712C200.785 376.759 212.731 388.931 228.033 395.203C244.932 402.136 263.982 401.076 281.772 405.241C297.97 409.038 312.88 417.112 328.961 421.416C345.041 425.721 363.889 425.46 376.347 414.465C392.585 400.087 391.308 374.477 401.679 355.457C411.312 337.786 430.168 327.236 442.861 311.613C465.699 283.495 464.952 240.518 445.56 209.938C426.168 179.358 391.042 160.842 355.124 156.021C338.927 153.85 322.248 154.147 306.676 149.209C264.994 135.999 240.19 88.6686 197.635 78.8197C170.586 72.5697 144.278 83.3937 121.237 96.7158C101.238 108.281 82.7863 103.123 61.9726 111.745Z" fill="#4742D7"/>
<path d="M102.592 204.529C102.592 204.529 87.2362 219.001 70.7553 219.432C63.8345 219.57 57.1452 221.946 51.6918 226.203C49.1141 228.238 46.7285 230.505 44.5649 232.975" stroke="#191E3E" stroke-width="2" stroke-miterlimit="10"/>
<path d="M34.1715 233.33C36.3852 232.206 44.8348 232.952 44.8348 232.952C44.8348 232.952 40.4525 240.209 38.2389 241.332C37.7087 241.646 37.1196 241.847 36.5082 241.925C35.8967 242.002 35.2759 241.952 34.6843 241.78C34.0927 241.608 33.5428 241.316 33.0688 240.922C32.5948 240.529 32.2068 240.043 31.9288 239.493C31.6509 238.944 31.4889 238.344 31.4529 237.729C31.4169 237.115 31.5077 236.499 31.7197 235.922C31.9317 235.344 32.2603 234.815 32.6851 234.369C33.11 233.924 33.622 233.57 34.1895 233.33H34.1715Z" fill="#4742D7"/>
<path d="M43.0666 220.502C45.5367 220.762 52.2227 225.974 52.2227 225.974C52.2227 225.974 44.5739 229.686 42.1263 229.429C40.9811 229.257 39.9468 228.65 39.2386 227.735C38.5303 226.82 38.2027 225.667 38.3238 224.517C38.4449 223.367 39.0056 222.307 39.889 221.559C40.7724 220.812 41.9105 220.433 43.0666 220.502V220.502Z" fill="#4742D7"/>
<path d="M64.1593 210.163C66.157 211.632 69.2975 219.504 69.2975 219.504C69.2975 219.504 60.8343 218.862 58.8366 217.397C57.9362 216.67 57.3508 215.625 57.2022 214.479C57.0535 213.332 57.3531 212.173 58.0385 211.241C58.7239 210.31 59.7425 209.678 60.8825 209.477C62.0224 209.276 63.196 209.522 64.1593 210.163V210.163Z" fill="#4742D7"/>
<path d="M81.8821 205.935C84.1002 207.045 88.5275 214.274 88.5275 214.274C88.5275 214.274 80.0778 215.069 77.8597 213.96C77.3 213.716 76.796 213.36 76.3782 212.915C75.9605 212.471 75.6378 211.946 75.4298 211.372C75.2219 210.799 75.1329 210.189 75.1685 209.58C75.2041 208.971 75.3634 208.376 75.6368 207.831C75.9101 207.285 76.2918 206.801 76.7585 206.408C77.2253 206.015 77.7673 205.72 78.3516 205.543C78.9359 205.366 79.5502 205.309 80.1572 205.376C80.7641 205.444 81.351 205.634 81.8821 205.935V205.935Z" fill="#4742D7"/>
<path d="M56.9245 234.156C57.6623 231.788 55.5027 223.593 55.5027 223.593C55.5027 223.593 49.0777 229.128 48.3398 231.496C48.1319 232.068 48.0423 232.675 48.0764 233.283C48.1106 233.89 48.2678 234.483 48.5385 235.028C48.8092 235.573 49.1878 236.057 49.6513 236.451C50.1149 236.845 50.6538 237.142 51.2353 237.322C51.8169 237.502 52.429 237.562 53.0346 237.499C53.6402 237.437 54.2268 237.251 54.7587 236.955C55.2906 236.659 55.7568 236.259 56.129 235.778C56.5013 235.296 56.7719 234.745 56.9245 234.156V234.156Z" fill="#4742D7"/>
<path d="M77.5897 228.931C77.5897 226.451 73.0679 219.28 73.0679 219.28C73.0679 219.28 68.5956 226.469 68.6001 228.958C68.6037 230.149 69.0812 231.291 69.9275 232.131C70.7738 232.971 71.9196 233.441 73.1129 233.437C74.3062 233.434 75.4492 232.957 76.2904 232.112C77.1317 231.267 77.6023 230.122 77.5987 228.931H77.5897Z" fill="#4742D7"/>
<path d="M96.9772 221.131C97.3911 218.687 94.1516 210.855 94.1516 210.855C94.1516 210.855 88.523 217.199 88.1136 219.644C87.9753 220.79 88.2846 221.946 88.9771 222.871C89.6697 223.796 90.6924 224.419 91.8329 224.611C92.9734 224.803 94.1441 224.549 95.1021 223.902C96.06 223.255 96.7315 222.264 96.9772 221.135V221.131Z" fill="#4742D7"/>
<path d="M122.547 166.202C122.547 166.202 104.05 156.057 98.5519 140.515C96.2931 133.98 91.9719 128.353 86.2374 124.479C83.5008 122.661 80.6032 121.096 77.5807 119.806" stroke="#191E3E" stroke-width="2" stroke-miterlimit="10"/>
<path d="M74.0713 110.034C75.8215 111.79 77.7067 120.053 77.7067 120.053C77.7067 120.053 69.446 118.121 67.6958 116.36C66.9228 115.503 66.5096 114.382 66.5417 113.229C66.5737 112.076 67.0486 110.979 67.8679 110.166C68.6872 109.353 69.7883 108.886 70.9431 108.861C72.0978 108.836 73.2179 109.256 74.0713 110.034V110.034Z" fill="#4742D7"/>
<path d="M89.0314 114.54C89.5443 116.966 86.6333 124.924 86.6333 124.924C86.6333 124.924 80.7527 118.817 80.2398 116.387C80.0875 115.799 80.0562 115.186 80.1476 114.586C80.2391 113.986 80.4514 113.41 80.7718 112.894C81.0922 112.378 81.5141 111.932 82.0118 111.583C82.5096 111.235 83.073 110.99 83.668 110.865C84.2629 110.74 84.8771 110.736 85.4735 110.855C86.0699 110.973 86.636 111.211 87.1377 111.554C87.6394 111.897 88.0663 112.338 88.3925 112.851C88.7188 113.363 88.9377 113.936 89.0359 114.536L89.0314 114.54Z" fill="#4742D7"/>
<path d="M105.364 131.43C104.581 133.78 98.0435 139.185 98.0435 139.185C98.0435 139.185 96.0548 130.949 96.8377 128.595C97.2142 127.462 98.0256 126.526 99.0934 125.991C100.161 125.457 101.398 125.368 102.532 125.744C103.665 126.12 104.603 126.93 105.138 127.996C105.674 129.063 105.763 130.298 105.386 131.43H105.364Z" fill="#4742D7"/>
<path d="M114.848 146.954C114.475 149.402 108.945 155.832 108.945 155.832C108.945 155.832 105.589 148.05 105.962 145.601C106.025 144.996 106.209 144.41 106.505 143.878C106.801 143.346 107.202 142.88 107.683 142.507C108.165 142.135 108.718 141.864 109.307 141.711C109.897 141.558 110.511 141.526 111.114 141.618C111.716 141.709 112.293 141.922 112.811 142.243C113.329 142.563 113.776 142.986 114.125 143.484C114.474 143.983 114.718 144.547 114.843 145.143C114.967 145.738 114.969 146.353 114.848 146.949V146.954Z" fill="#4742D7"/>
<path d="M80.2758 131.911C82.7594 131.884 89.9043 127.31 89.9043 127.31C89.9043 127.31 82.6559 122.906 80.1723 122.933C78.979 122.947 77.8401 123.433 77.006 124.286C76.1719 125.138 75.711 126.286 75.7248 127.478C75.7385 128.67 76.2257 129.807 77.0792 130.64C77.9326 131.473 79.0825 131.933 80.2758 131.919V131.911Z" fill="#4742D7"/>
<path d="M91.596 149.946C93.9537 149.178 99.4023 142.681 99.4023 142.681C99.4023 142.681 91.1641 140.645 88.8065 141.414C88.2247 141.579 87.6823 141.861 87.2119 142.241C86.7415 142.621 86.3526 143.091 86.0685 143.625C85.7845 144.158 85.6111 144.743 85.5588 145.345C85.5064 145.947 85.5762 146.554 85.7639 147.128C85.9516 147.702 86.2533 148.233 86.6511 148.688C87.0489 149.144 87.5346 149.514 88.079 149.778C88.6235 150.041 89.2156 150.192 89.8199 150.222C90.4242 150.252 91.0283 150.159 91.596 149.95V149.946Z" fill="#4742D7"/>
<path d="M105.004 165.969C107.461 165.609 113.931 160.127 113.931 160.127C113.931 160.127 106.156 156.731 103.704 157.09C103.1 157.152 102.515 157.336 101.984 157.63C101.453 157.924 100.987 158.322 100.614 158.8C100.241 159.279 99.9691 159.828 99.8143 160.414C99.6595 161 99.6251 161.612 99.7133 162.212C99.8014 162.812 100.01 163.387 100.327 163.905C100.644 164.422 101.062 164.869 101.557 165.221C102.052 165.572 102.613 165.82 103.206 165.949C103.799 166.079 104.412 166.087 105.008 165.973L105.004 165.969Z" fill="#4742D7"/>
<path d="M249.836 409.676C338.299 409.676 410.011 338.061 410.011 249.72C410.011 161.379 338.299 89.7649 249.836 89.7649C161.374 89.7649 89.6613 161.379 89.6613 249.72C89.6613 338.061 161.374 409.676 249.836 409.676Z" fill="#4742D7"/>
<path d="M249.836 376.876C320.159 376.876 377.166 319.947 377.166 249.721C377.166 179.494 320.159 122.565 249.836 122.565C179.514 122.565 122.506 179.494 122.506 249.721C122.506 319.947 179.514 376.876 249.836 376.876Z" fill="white"/>
<g opacity="0.1">
<path opacity="0.1" d="M359.169 247.024H257.485V256.011H359.169V247.024Z" fill="black"/>
<path opacity="0.1" d="M185.695 213.404L181.521 221.365L245.501 254.824L249.676 246.863L185.695 213.404Z" fill="black"/>
<path opacity="0.1" d="M249.836 264.997C257.291 264.997 263.334 258.962 263.334 251.518C263.334 244.073 257.291 238.038 249.836 238.038C242.382 238.038 236.338 244.073 236.338 251.518C236.338 258.962 242.382 264.997 249.836 264.997Z" fill="black"/>
</g>
<path d="M359.169 245.227H257.485V254.214H359.169V245.227Z" fill="#191E3E"/>
<path d="M249.705 245.077L185.725 211.617L181.55 219.578L245.531 253.037L249.705 245.077Z" fill="#191E3E"/>
<path d="M249.836 263.2C257.291 263.2 263.334 257.165 263.334 249.72C263.334 242.276 257.291 236.241 249.836 236.241C242.382 236.241 236.338 242.276 236.338 249.72C236.338 257.165 242.382 263.2 249.836 263.2Z" fill="#191E3E"/>
<g opacity="0.1">
<path opacity="0.1" d="M132.396 264.997C132.396 194.77 189.402 137.842 259.726 137.842C279.464 137.824 298.935 142.397 316.597 151.197C334.259 159.997 349.626 172.783 361.482 188.542C339.813 149.218 297.97 122.565 249.827 122.565C179.503 122.565 122.497 179.493 122.497 249.721C122.456 277.309 131.441 304.156 148.085 326.176C137.763 307.434 132.365 286.386 132.396 264.997V264.997Z" fill="black"/>
</g>
<path d="M314.667 288.829C314.667 288.829 313.717 290.729 312.417 293.012C311.909 293.91 311.342 294.876 310.761 295.806C308.705 299.091 310.761 309.555 310.761 309.555L306.262 310.171L301.763 307.924L300.939 300.331V294.778L306.069 289.049L308.318 286.569L314.667 288.829Z" fill="#FFC1AB"/>
<g opacity="0.1">
<path opacity="0.1" d="M314.667 288.829C314.667 288.829 313.717 290.729 312.417 293.012C310.431 291.952 308.51 290.772 306.667 289.48L306.271 289.202L306.06 289.049L308.309 286.569L314.667 288.829Z" fill="black"/>
</g>
<path d="M336.664 250.448C336.664 250.448 325.771 273.637 326.185 275.691C326.599 277.744 319.814 294.162 319.814 294.162C318.266 294.89 315.423 293.843 312.741 292.455C310.719 291.378 308.765 290.178 306.892 288.86L306.496 288.582L306.257 288.411L324.138 238.95L308.318 227.363L307.148 226.505L300.075 221.292L321.672 225.193C321.672 225.193 322.423 225.098 326.396 227.318C328.304 228.383 330.954 229.978 334.617 232.377C345.905 239.777 336.664 250.448 336.664 250.448Z" fill="#4742D7"/>
<g opacity="0.03">
<path opacity="0.03" d="M336.664 250.448C336.664 250.448 325.771 273.637 326.185 275.691C326.599 277.744 319.814 294.162 319.814 294.162C318.266 294.89 315.423 293.843 312.741 292.455C310.719 291.378 308.765 290.178 306.892 288.86L306.496 288.582L306.257 288.411L324.138 238.95L308.318 227.363L307.148 226.505L300.075 221.292L321.672 225.193C321.672 225.193 322.423 225.098 326.396 227.318C328.304 228.383 330.954 229.978 334.617 232.377C345.905 239.777 336.664 250.448 336.664 250.448Z" fill="#4742D7"/>
</g>
<path d="M303.571 292.931C303.571 292.931 298.226 292.109 300.08 300.731C300.08 300.731 300.161 310.84 300.903 312.413C301.646 313.986 309.947 316.106 311.382 314.466C312.817 312.826 310.455 307.183 310.455 307.183C310.455 307.183 304.395 311.595 302.748 306.873C301.101 302.151 303.571 292.931 303.571 292.931Z" fill="#191E3E"/>
<path d="M299.868 291.291C299.285 291.845 298.811 292.504 298.469 293.232C298.045 294.057 297.775 294.952 297.673 295.874C297.619 296.575 297.506 297.271 297.389 297.963C296.876 300.888 298.843 309.555 298.843 309.555L291.032 310.787L288.157 307.709L287.54 300.938C288.308 298.616 288.723 296.193 288.773 293.749C288.773 291.983 289.673 290.406 290.573 289.255C291.183 288.488 291.882 287.796 292.656 287.193C292.656 287.193 301.515 289.853 299.868 291.291Z" fill="#FFC1AB"/>
<g opacity="0.1">
<path opacity="0.1" d="M299.869 291.291C299.285 291.845 298.811 292.504 298.469 293.232C295.27 291.79 291.909 289.97 290.685 289.296L290.591 289.246C291.201 288.479 291.9 287.787 292.674 287.184C292.674 287.184 301.515 289.853 299.869 291.291Z" fill="black"/>
</g>
<path d="M325.15 244.293C325.15 244.293 320.016 253.94 316.723 261.942C314.563 267.199 310.1 279.717 307.274 287.687L306.86 288.865C305.619 292.392 304.791 294.778 304.791 294.778C304.243 294.781 303.699 294.701 303.175 294.54C302.69 294.409 302.145 294.234 301.565 294.018L300.912 293.771C300.264 293.52 299.563 293.227 298.892 292.922C295.626 291.466 292.143 289.57 290.879 288.878L290.402 288.613C292.813 283.788 294.614 278.682 295.761 273.413C297.61 264.795 303.981 252.295 303.981 252.295L304.804 248.188L289.39 246.135C277.777 240.339 283.419 228.913 286.735 223.84C287.3 222.96 287.912 222.109 288.566 221.292L300.899 223.988C300.899 223.988 302.843 224.608 307.162 226.518L309.146 227.417C311.567 228.526 314.545 229.955 318.145 231.788C330.284 237.917 325.15 244.293 325.15 244.293Z" fill="#4742D7"/>
<path d="M298.766 308.94C299.206 309.68 299.417 310.533 299.372 311.393C299.326 312.252 299.028 313.079 298.513 313.769C297.998 314.459 297.29 314.981 296.479 315.27C295.667 315.559 294.788 315.601 293.952 315.392C291.428 314.768 288.436 313.698 287.536 312.013C285.894 308.935 286.713 296.211 286.713 296.211L288.872 293.03C288.872 293.03 287.743 307.089 290.416 308.306C293.088 309.524 298.739 308.877 298.739 308.877L298.766 308.94Z" fill="#191E3E"/>
<path d="M300.953 130.468C300.132 130.696 299.387 131.138 298.793 131.749C297.983 132.692 297.893 134.04 297.344 135.168C296.489 136.965 294.645 138.066 293.007 139.212C291.369 140.358 289.736 141.971 289.727 143.975C289.727 146.823 292.877 148.611 293.902 151.258C294.879 153.729 293.902 156.474 293.358 159.076C293.131 159.918 293.109 160.803 293.295 161.655C293.51 162.287 293.836 162.876 294.258 163.394C296.242 166.09 298.708 168.48 300.035 171.549C301.043 173.881 301.322 176.455 301.587 178.985C301.97 182.624 302.352 186.331 301.659 189.926C301.592 190.141 301.592 190.371 301.659 190.586C301.777 190.793 301.963 190.951 302.186 191.036C303.495 191.671 304.919 192.035 306.373 192.107C307.827 192.178 309.28 191.956 310.646 191.452C312.011 190.948 313.261 190.174 314.319 189.176C315.377 188.178 316.222 186.976 316.804 185.644C317.704 183.608 318.05 181.151 319.832 179.83C320.04 179.658 320.29 179.545 320.556 179.502C320.976 179.513 321.384 179.649 321.726 179.893C324.039 181.142 326.842 181.178 329.42 180.665C330.977 180.355 332.569 179.803 333.6 178.59C335.629 176.181 334.5 172.582 334.635 169.442C334.743 166.93 335.71 164.279 334.635 162.006C333.42 159.408 329.852 158.105 329.555 155.266C329.375 153.567 330.482 152.026 330.972 150.391C332.137 146.468 329.717 142.469 327.404 139.095C326.626 137.836 325.673 136.694 324.574 135.703C323.537 134.914 322.391 134.278 321.173 133.816C317.785 132.391 314.329 131.672 310.824 130.702C307.468 129.745 304.377 129.3 300.953 130.468Z" fill="#191E3E"/>
<path d="M318.163 189.086H306.239V169.792C306.594 167.939 306.801 166.061 306.86 164.176C306.86 163.542 306.86 162.895 306.86 162.244C306.748 159.943 306.271 157.647 305.02 156.245C301.731 152.552 315.706 153.168 315.706 153.168C316.135 154.864 316.691 156.525 317.371 158.137C318.383 160.653 319.73 163.021 321.375 165.178C322.822 167.097 324.677 168.673 326.806 169.792C335.012 173.899 318.163 189.086 318.163 189.086Z" fill="#FFC1AB"/>
<g opacity="0.1">
<path opacity="0.1" d="M317.357 158.137C316.147 159.713 314.528 160.929 312.675 161.653C310.823 162.377 308.807 162.581 306.847 162.244C306.734 159.943 306.257 157.647 305.007 156.245C301.718 152.552 315.693 153.168 315.693 153.168C316.121 154.864 316.678 156.525 317.357 158.137V158.137Z" fill="black"/>
</g>
<path d="M308.705 161.794C314.721 161.794 319.598 156.924 319.598 150.916C319.598 144.909 314.721 140.039 308.705 140.039C302.689 140.039 297.812 144.909 297.812 150.916C297.812 156.924 302.689 161.794 308.705 161.794Z" fill="#FFC1AB"/>
<path d="M353.919 169.59C353.384 172.436 353.041 175.316 352.893 178.208C352.726 181.906 350.09 195.313 349.127 200.098C349.005 200.712 348.734 201.286 348.337 201.77C347.94 202.253 347.429 202.632 346.85 202.871C344.178 203.963 339.318 204.574 336.052 196.886C334.21 192.656 332.716 188.283 331.584 183.811C331.184 182.308 330.883 180.78 330.684 179.237L337.883 175.337C338.561 175.97 339.135 176.705 339.584 177.516C340.578 179.219 341.599 181.951 341.384 185.801L343.633 189.086C343.633 189.086 349.181 171.846 348.132 168.768C347.084 165.69 351.421 164.868 351.421 164.868C351.421 164.868 363.547 155.432 364.987 156.865C366.427 158.299 360.699 165.483 353.919 169.59Z" fill="#FFC1AB"/>
<path d="M294.937 177.799C294.376 179.404 293.73 180.979 293.003 182.517C290.582 187.715 285.84 195.996 278.497 200.786C267.195 208.173 269.66 193.192 269.66 193.192C269.66 193.192 272.427 175.382 272.949 173.697C273.773 171.028 273.359 166.926 273.359 166.926C269.044 164.872 264.113 151.945 265.548 150.917C266.983 149.888 277.246 161.794 277.246 161.794C277.246 161.794 281.975 164.041 279.496 167.748C277.017 171.455 278.056 187.859 278.056 187.859L282.812 181.304C283.87 178.568 285.291 175.987 287.036 173.629C287.936 172.403 288.566 171.661 288.566 171.661L294.937 177.799Z" fill="#FFC1AB"/>
<g opacity="0.1">
<path opacity="0.1" d="M339.588 177.516C338.076 178.073 332.223 180.432 331.575 183.806C331.175 182.303 330.874 180.775 330.675 179.232L337.874 175.332C338.557 175.966 339.135 176.703 339.588 177.516Z" fill="black"/>
</g>
<g opacity="0.1">
<path opacity="0.1" d="M294.937 177.799C294.376 179.404 293.73 180.979 293.003 182.517C292.724 180.486 291.576 175.292 287.036 173.616C287.936 172.389 288.566 171.648 288.566 171.648L294.937 177.799Z" fill="black"/>
</g>
<g opacity="0.1">
<path opacity="0.1" d="M318.163 189.086H306.24V169.792C306.594 167.939 306.801 166.061 306.86 164.176C309.313 166.539 308.705 170.201 308.705 170.201L315.076 184.579L318.163 171.868L317.137 170.228L321.366 165.205C322.814 167.124 324.668 168.7 326.797 169.819C335.013 173.899 318.163 189.086 318.163 189.086Z" fill="black"/>
</g>
<g opacity="0.1">
<path opacity="0.1" d="M326.585 228.481C326.585 228.481 317.245 227.74 309.142 227.39L308.327 227.354C307.175 227.309 306.077 227.273 305.002 227.246C297.137 227.057 288.242 224.312 286.731 223.831C287.298 222.954 287.91 222.106 288.566 221.292L300.899 223.988C300.899 223.988 302.842 224.608 307.162 226.518L300.075 221.292L321.672 225.193C321.672 225.193 322.423 225.098 326.396 227.318L326.585 228.481Z" fill="black"/>
</g>
<path d="M318.163 172.668L317.137 171.028L321.699 165.578C321.699 165.578 331.107 170.183 333.573 169.172C333.573 169.172 339.534 174.115 339.737 176.972C339.737 176.972 331.107 179.843 331.31 184.161C331.512 188.479 327.215 197.703 327.215 197.703L325.415 205.081C324.308 209.552 324.155 214.206 324.966 218.74L326.608 227.875C326.608 227.875 313.659 226.85 305.011 226.644C296.364 226.437 286.515 223.157 286.515 223.157L291.558 212.558C293.377 208.733 294.268 204.534 294.159 200.301L293.709 183.141C293.709 183.141 293.3 174.523 286.51 173.086C286.51 173.086 290.208 165.492 295.959 166.108C295.959 166.108 304.336 162.617 306.824 164.976C309.313 167.334 308.701 171.032 308.701 171.032L315.072 185.41L318.163 172.668Z" fill="#FF8016"/>
<g opacity="0.1">
<path opacity="0.1" d="M300.845 148.674C302.496 148.674 303.792 146.926 305.443 147.016C306.298 147.061 307.031 147.605 307.738 148.095C310.407 149.941 313.377 151.309 316.516 152.139C317.735 152.462 319.027 152.705 320.25 152.408C321.474 152.112 322.621 151.15 322.761 149.896C322.795 149.344 322.722 148.79 322.545 148.265C321.16 143.445 318.025 139.314 313.753 136.678C312.044 135.631 309.956 134.831 308.062 135.487C306.352 136.076 305.25 137.675 304.012 138.992C303.08 139.977 302.021 140.836 300.863 141.544C299.963 142.087 298.613 142.442 298.096 143.44C297.119 145.3 298.654 148.656 300.845 148.674Z" fill="black"/>
</g>
<path d="M300.845 148.266C302.496 148.266 303.792 146.518 305.443 146.608C306.298 146.653 307.031 147.196 307.738 147.686C310.407 149.532 313.377 150.9 316.516 151.73C317.735 152.053 319.027 152.296 320.25 151.999C321.474 151.703 322.621 150.741 322.761 149.488C322.795 148.935 322.722 148.381 322.545 147.857C321.16 143.037 318.025 138.905 313.753 136.269C312.044 135.222 309.956 134.422 308.062 135.078C306.352 135.667 305.25 137.266 304.012 138.583C303.08 139.569 302.021 140.427 300.863 141.135C299.963 141.679 298.613 142.034 298.096 143.031C297.119 144.909 298.654 148.243 300.845 148.266Z" fill="#191E3E"/>
<path opacity="0.05" d="M295.864 195.138C295.864 195.138 305.934 198.831 312.512 195.96L315.801 196.167C315.801 196.167 321.267 199.995 327.049 198.283" fill="black"/>
<path opacity="0.05" d="M343.543 188.982C343.543 188.982 341.901 192.882 342.72 194.114Z" fill="black"/>
<path opacity="0.05" d="M277.984 187.751C277.984 187.751 278.807 191.651 277.984 192.882Z" fill="black"/>
<path d="M448.426 276.621C448.426 276.621 429.601 295.42 440.229 323.313C450.856 351.207 422.015 397.594 422.015 397.594C422.015 397.594 422.326 397.549 422.915 397.45C461.578 390.634 480.785 346.48 459.288 313.676C451.274 301.477 444.714 287.171 448.426 276.621Z" fill="#4742D7"/>
<path opacity="0.1" d="M448.426 276.935C448.426 276.935 429.601 295.735 440.229 323.628C450.856 351.521 422.015 397.904 422.015 397.904C422.015 397.904 422.326 397.859 422.915 397.76C461.578 390.944 480.785 346.79 459.288 313.986C451.274 301.791 444.714 287.485 448.426 276.935Z" fill="black"/>
<path d="M448.426 276.621C448.426 276.621 437.799 299.662 448.426 318.461C459.054 337.26 450.226 390.014 422.011 397.594" stroke="#191E3E" stroke-miterlimit="10"/>
<path d="M481.955 352.654C481.955 352.654 460.475 349.239 458.518 368.46C456.561 387.682 417.201 390.347 417.201 390.347L417.939 390.836C450.424 412.134 481.483 404.401 476.799 376.121C475.071 365.612 475.215 355.053 481.955 352.654Z" fill="#4742D7"/>
<path d="M481.955 352.654C481.955 352.654 465.281 356.306 466.657 371.448C468.034 386.59 441.911 404.738 417.219 390.351" stroke="#191E3E" stroke-miterlimit="10"/>
<path d="M463.058 391.047C463.058 391.047 446.141 387.668 441.628 383.162C437.115 378.655 416.814 370.774 414.56 376.422C412.306 382.07 384.109 401.202 403.28 404.581C422.452 407.959 448.395 409.074 454.032 406.827C459.67 404.581 463.058 391.047 463.058 391.047Z" fill="#A8A8A8"/>
<path opacity="0.2" d="M403.28 402.473C422.456 405.852 448.395 406.967 454.032 404.72C458.329 403.004 461.312 394.763 462.491 390.926L463.053 391.043C463.053 391.043 459.67 404.558 454.032 406.809C448.395 409.06 422.452 407.937 403.28 404.563C397.746 403.588 396.162 401.296 396.761 398.398C397.229 400.29 399.159 401.745 403.28 402.473Z" fill="black"/>
</g>
<path d="M226.693 353.76C226.693 353.301 226.778 352.899 226.949 352.552C227.125 352.205 227.362 351.939 227.661 351.752C227.959 351.565 228.293 351.472 228.661 351.472C228.975 351.472 229.25 351.536 229.485 351.664C229.725 351.792 229.909 351.96 230.037 352.168V351.536H231.405V356H230.037V355.368C229.903 355.576 229.717 355.744 229.477 355.872C229.242 356 228.967 356.064 228.653 356.064C228.29 356.064 227.959 355.971 227.661 355.784C227.362 355.592 227.125 355.323 226.949 354.976C226.778 354.624 226.693 354.219 226.693 353.76ZM230.037 353.768C230.037 353.427 229.941 353.157 229.749 352.96C229.562 352.763 229.333 352.664 229.061 352.664C228.789 352.664 228.557 352.763 228.365 352.96C228.178 353.152 228.085 353.419 228.085 353.76C228.085 354.101 228.178 354.373 228.365 354.576C228.557 354.773 228.789 354.872 229.061 354.872C229.333 354.872 229.562 354.773 229.749 354.576C229.941 354.379 230.037 354.109 230.037 353.768ZM232.122 353.768C232.122 353.304 232.216 352.899 232.402 352.552C232.594 352.205 232.858 351.939 233.194 351.752C233.536 351.565 233.925 351.472 234.362 351.472C234.922 351.472 235.389 351.619 235.762 351.912C236.141 352.205 236.389 352.619 236.506 353.152H235.05C234.928 352.811 234.69 352.64 234.338 352.64C234.088 352.64 233.888 352.739 233.738 352.936C233.589 353.128 233.514 353.405 233.514 353.768C233.514 354.131 233.589 354.411 233.738 354.608C233.888 354.8 234.088 354.896 234.338 354.896C234.69 354.896 234.928 354.725 235.05 354.384H236.506C236.389 354.907 236.141 355.317 235.762 355.616C235.384 355.915 234.917 356.064 234.362 356.064C233.925 356.064 233.536 355.971 233.194 355.784C232.858 355.597 232.594 355.331 232.402 354.984C232.216 354.637 232.122 354.232 232.122 353.768ZM241.446 353.696C241.446 353.824 241.438 353.957 241.422 354.096H238.326C238.348 354.373 238.436 354.587 238.59 354.736C238.75 354.88 238.945 354.952 239.174 354.952C239.516 354.952 239.753 354.808 239.886 354.52H241.342C241.268 354.813 241.132 355.077 240.934 355.312C240.742 355.547 240.5 355.731 240.206 355.864C239.913 355.997 239.585 356.064 239.222 356.064C238.785 356.064 238.396 355.971 238.054 355.784C237.713 355.597 237.446 355.331 237.254 354.984C237.062 354.637 236.966 354.232 236.966 353.768C236.966 353.304 237.06 352.899 237.246 352.552C237.438 352.205 237.705 351.939 238.046 351.752C238.388 351.565 238.78 351.472 239.222 351.472C239.654 351.472 240.038 351.563 240.374 351.744C240.71 351.925 240.972 352.184 241.158 352.52C241.35 352.856 241.446 353.248 241.446 353.696ZM240.046 353.336C240.046 353.101 239.966 352.915 239.806 352.776C239.646 352.637 239.446 352.568 239.206 352.568C238.977 352.568 238.782 352.635 238.622 352.768C238.468 352.901 238.372 353.091 238.334 353.336H240.046ZM241.896 353.768C241.896 353.304 241.989 352.899 242.176 352.552C242.368 352.205 242.632 351.939 242.968 351.752C243.309 351.565 243.699 351.472 244.136 351.472C244.696 351.472 245.163 351.619 245.536 351.912C245.915 352.205 246.163 352.619 246.28 353.152H244.824C244.701 352.811 244.464 352.64 244.112 352.64C243.861 352.64 243.661 352.739 243.512 352.936C243.363 353.128 243.288 353.405 243.288 353.768C243.288 354.131 243.363 354.411 243.512 354.608C243.661 354.8 243.861 354.896 244.112 354.896C244.464 354.896 244.701 354.725 244.824 354.384H246.28C246.163 354.907 245.915 355.317 245.536 355.616C245.157 355.915 244.691 356.064 244.136 356.064C243.699 356.064 243.309 355.971 242.968 355.784C242.632 355.597 242.368 355.331 242.176 354.984C241.989 354.637 241.896 354.232 241.896 353.768ZM249.044 356.064C248.606 356.064 248.212 355.971 247.86 355.784C247.513 355.597 247.238 355.331 247.036 354.984C246.838 354.637 246.74 354.232 246.74 353.768C246.74 353.309 246.841 352.907 247.044 352.56C247.246 352.208 247.524 351.939 247.876 351.752C248.228 351.565 248.622 351.472 249.06 351.472C249.497 351.472 249.892 351.565 250.244 351.752C250.596 351.939 250.873 352.208 251.076 352.56C251.278 352.907 251.38 353.309 251.38 353.768C251.38 354.227 251.276 354.632 251.068 354.984C250.865 355.331 250.585 355.597 250.228 355.784C249.876 355.971 249.481 356.064 249.044 356.064ZM249.044 354.88C249.305 354.88 249.526 354.784 249.708 354.592C249.894 354.4 249.988 354.125 249.988 353.768C249.988 353.411 249.897 353.136 249.716 352.944C249.54 352.752 249.321 352.656 249.06 352.656C248.793 352.656 248.572 352.752 248.396 352.944C248.22 353.131 248.132 353.405 248.132 353.768C248.132 354.125 248.217 354.4 248.388 354.592C248.564 354.784 248.782 354.88 249.044 354.88ZM251.833 353.76C251.833 353.301 251.919 352.899 252.089 352.552C252.265 352.205 252.503 351.939 252.801 351.752C253.1 351.565 253.433 351.472 253.801 351.472C254.095 351.472 254.361 351.533 254.601 351.656C254.847 351.779 255.039 351.944 255.177 352.152V350.08H256.545V356H255.177V355.36C255.049 355.573 254.865 355.744 254.625 355.872C254.391 356 254.116 356.064 253.801 356.064C253.433 356.064 253.1 355.971 252.801 355.784C252.503 355.592 252.265 355.323 252.089 354.976C251.919 354.624 251.833 354.219 251.833 353.76ZM255.177 353.768C255.177 353.427 255.081 353.157 254.889 352.96C254.703 352.763 254.473 352.664 254.201 352.664C253.929 352.664 253.697 352.763 253.505 352.96C253.319 353.152 253.225 353.419 253.225 353.76C253.225 354.101 253.319 354.373 253.505 354.576C253.697 354.773 253.929 354.872 254.201 354.872C254.473 354.872 254.703 354.773 254.889 354.576C255.081 354.379 255.177 354.109 255.177 353.768ZM261.743 353.696C261.743 353.824 261.735 353.957 261.719 354.096H258.623C258.644 354.373 258.732 354.587 258.887 354.736C259.047 354.88 259.242 354.952 259.471 354.952C259.812 354.952 260.05 354.808 260.183 354.52H261.639C261.564 354.813 261.428 355.077 261.231 355.312C261.039 355.547 260.796 355.731 260.503 355.864C260.21 355.997 259.882 356.064 259.519 356.064C259.082 356.064 258.692 355.971 258.351 355.784C258.01 355.597 257.743 355.331 257.551 354.984C257.359 354.637 257.263 354.232 257.263 353.768C257.263 353.304 257.356 352.899 257.543 352.552C257.735 352.205 258.002 351.939 258.343 351.752C258.684 351.565 259.076 351.472 259.519 351.472C259.951 351.472 260.335 351.563 260.671 351.744C261.007 351.925 261.268 352.184 261.455 352.52C261.647 352.856 261.743 353.248 261.743 353.696ZM260.343 353.336C260.343 353.101 260.263 352.915 260.103 352.776C259.943 352.637 259.743 352.568 259.503 352.568C259.274 352.568 259.079 352.635 258.919 352.768C258.764 352.901 258.668 353.091 258.631 353.336H260.343ZM268.873 351.536L267.665 356H266.153L265.449 353.104L264.721 356H263.217L262.001 351.536H263.369L264.001 354.728L264.753 351.536H266.201L266.961 354.712L267.585 351.536H268.873ZM270.082 351.072C269.842 351.072 269.645 351.003 269.49 350.864C269.341 350.72 269.266 350.544 269.266 350.336C269.266 350.123 269.341 349.947 269.49 349.808C269.645 349.664 269.842 349.592 270.082 349.592C270.317 349.592 270.509 349.664 270.658 349.808C270.813 349.947 270.89 350.123 270.89 350.336C270.89 350.544 270.813 350.72 270.658 350.864C270.509 351.003 270.317 351.072 270.082 351.072ZM270.762 351.536V356H269.394V351.536H270.762ZM273.034 354.872H274.97V356H271.506V354.912L273.362 352.664H271.522V351.536H274.93V352.624L273.034 354.872Z" fill="#444444"/>
<path d="M199.002 323.96V326.7H195.282V338H191.862V326.7H188.142V323.96H199.002ZM202.439 325.68C201.839 325.68 201.345 325.507 200.959 325.16C200.585 324.8 200.399 324.36 200.399 323.84C200.399 323.307 200.585 322.867 200.959 322.52C201.345 322.16 201.839 321.98 202.439 321.98C203.025 321.98 203.505 322.16 203.879 322.52C204.265 322.867 204.459 323.307 204.459 323.84C204.459 324.36 204.265 324.8 203.879 325.16C203.505 325.507 203.025 325.68 202.439 325.68ZM204.139 326.84V338H200.719V326.84H204.139ZM220.857 326.72C222.244 326.72 223.344 327.14 224.157 327.98C224.984 328.82 225.397 329.987 225.397 331.48V338H221.997V331.94C221.997 331.22 221.804 330.667 221.417 330.28C221.044 329.88 220.524 329.68 219.857 329.68C219.19 329.68 218.664 329.88 218.277 330.28C217.904 330.667 217.717 331.22 217.717 331.94V338H214.317V331.94C214.317 331.22 214.124 330.667 213.737 330.28C213.364 329.88 212.844 329.68 212.177 329.68C211.51 329.68 210.984 329.88 210.597 330.28C210.224 330.667 210.037 331.22 210.037 331.94V338H206.617V326.84H210.037V328.24C210.384 327.773 210.837 327.407 211.397 327.14C211.957 326.86 212.59 326.72 213.297 326.72C214.137 326.72 214.884 326.9 215.537 327.26C216.204 327.62 216.724 328.133 217.097 328.8C217.484 328.187 218.01 327.687 218.677 327.3C219.344 326.913 220.07 326.72 220.857 326.72ZM238.309 332.24C238.309 332.56 238.289 332.893 238.249 333.24H230.509C230.562 333.933 230.782 334.467 231.169 334.84C231.569 335.2 232.055 335.38 232.629 335.38C233.482 335.38 234.075 335.02 234.409 334.3H238.049C237.862 335.033 237.522 335.693 237.029 336.28C236.549 336.867 235.942 337.327 235.209 337.66C234.475 337.993 233.655 338.16 232.749 338.16C231.655 338.16 230.682 337.927 229.829 337.46C228.975 336.993 228.309 336.327 227.829 335.46C227.349 334.593 227.109 333.58 227.109 332.42C227.109 331.26 227.342 330.247 227.809 329.38C228.289 328.513 228.955 327.847 229.809 327.38C230.662 326.913 231.642 326.68 232.749 326.68C233.829 326.68 234.789 326.907 235.629 327.36C236.469 327.813 237.122 328.46 237.589 329.3C238.069 330.14 238.309 331.12 238.309 332.24ZM234.809 331.34C234.809 330.753 234.609 330.287 234.209 329.94C233.809 329.593 233.309 329.42 232.709 329.42C232.135 329.42 231.649 329.587 231.249 329.92C230.862 330.253 230.622 330.727 230.529 331.34H234.809ZM246.933 338L243.533 333.32V338H240.113V323.2H243.533V331.38L246.913 326.84H251.133L246.493 332.44L251.173 338H246.933ZM262.996 332.24C262.996 332.56 262.976 332.893 262.936 333.24H255.196C255.25 333.933 255.47 334.467 255.856 334.84C256.256 335.2 256.743 335.38 257.316 335.38C258.17 335.38 258.763 335.02 259.096 334.3H262.736C262.55 335.033 262.21 335.693 261.716 336.28C261.236 336.867 260.63 337.327 259.896 337.66C259.163 337.993 258.343 338.16 257.436 338.16C256.343 338.16 255.37 337.927 254.516 337.46C253.663 336.993 252.996 336.327 252.516 335.46C252.036 334.593 251.796 333.58 251.796 332.42C251.796 331.26 252.03 330.247 252.496 329.38C252.976 328.513 253.643 327.847 254.496 327.38C255.35 326.913 256.33 326.68 257.436 326.68C258.516 326.68 259.476 326.907 260.316 327.36C261.156 327.813 261.81 328.46 262.276 329.3C262.756 330.14 262.996 331.12 262.996 332.24ZM259.496 331.34C259.496 330.753 259.296 330.287 258.896 329.94C258.496 329.593 257.996 329.42 257.396 329.42C256.823 329.42 256.336 329.587 255.936 329.92C255.55 330.253 255.31 330.727 255.216 331.34H259.496ZM275.321 332.24C275.321 332.56 275.301 332.893 275.261 333.24H267.521C267.574 333.933 267.794 334.467 268.181 334.84C268.581 335.2 269.067 335.38 269.641 335.38C270.494 335.38 271.087 335.02 271.421 334.3H275.061C274.874 335.033 274.534 335.693 274.041 336.28C273.561 336.867 272.954 337.327 272.221 337.66C271.487 337.993 270.667 338.16 269.761 338.16C268.667 338.16 267.694 337.927 266.841 337.46C265.987 336.993 265.321 336.327 264.841 335.46C264.361 334.593 264.121 333.58 264.121 332.42C264.121 331.26 264.354 330.247 264.821 329.38C265.301 328.513 265.967 327.847 266.821 327.38C267.674 326.913 268.654 326.68 269.761 326.68C270.841 326.68 271.801 326.907 272.641 327.36C273.481 327.813 274.134 328.46 274.601 329.3C275.081 330.14 275.321 331.12 275.321 332.24ZM271.821 331.34C271.821 330.753 271.621 330.287 271.221 329.94C270.821 329.593 270.321 329.42 269.721 329.42C269.147 329.42 268.661 329.587 268.261 329.92C267.874 330.253 267.634 330.727 267.541 331.34H271.821ZM280.545 328.42C280.878 327.9 281.338 327.48 281.925 327.16C282.511 326.84 283.198 326.68 283.985 326.68C284.905 326.68 285.738 326.913 286.485 327.38C287.231 327.847 287.818 328.513 288.245 329.38C288.685 330.247 288.905 331.253 288.905 332.4C288.905 333.547 288.685 334.56 288.245 335.44C287.818 336.307 287.231 336.98 286.485 337.46C285.738 337.927 284.905 338.16 283.985 338.16C283.211 338.16 282.525 338 281.925 337.68C281.338 337.36 280.878 336.947 280.545 336.44V343.32H277.125V326.84H280.545V328.42ZM285.425 332.4C285.425 331.547 285.185 330.88 284.705 330.4C284.238 329.907 283.658 329.66 282.965 329.66C282.285 329.66 281.705 329.907 281.225 330.4C280.758 330.893 280.525 331.567 280.525 332.42C280.525 333.273 280.758 333.947 281.225 334.44C281.705 334.933 282.285 335.18 282.965 335.18C283.645 335.18 284.225 334.933 284.705 334.44C285.185 333.933 285.425 333.253 285.425 332.4ZM301.219 332.24C301.219 332.56 301.199 332.893 301.159 333.24H293.419C293.472 333.933 293.692 334.467 294.079 334.84C294.479 335.2 294.966 335.38 295.539 335.38C296.392 335.38 296.986 335.02 297.319 334.3H300.959C300.772 335.033 300.432 335.693 299.939 336.28C299.459 336.867 298.852 337.327 298.119 337.66C297.386 337.993 296.566 338.16 295.659 338.16C294.566 338.16 293.592 337.927 292.739 337.46C291.886 336.993 291.219 336.327 290.739 335.46C290.259 334.593 290.019 333.58 290.019 332.42C290.019 331.26 290.252 330.247 290.719 329.38C291.199 328.513 291.866 327.847 292.719 327.38C293.572 326.913 294.552 326.68 295.659 326.68C296.739 326.68 297.699 326.907 298.539 327.36C299.379 327.813 300.032 328.46 300.499 329.3C300.979 330.14 301.219 331.12 301.219 332.24ZM297.719 331.34C297.719 330.753 297.519 330.287 297.119 329.94C296.719 329.593 296.219 329.42 295.619 329.42C295.046 329.42 294.559 329.587 294.159 329.92C293.772 330.253 293.532 330.727 293.439 331.34H297.719ZM306.443 328.7C306.843 328.087 307.343 327.607 307.943 327.26C308.543 326.9 309.21 326.72 309.943 326.72V330.34H309.003C308.15 330.34 307.51 330.527 307.083 330.9C306.657 331.26 306.443 331.9 306.443 332.82V338H303.023V326.84H306.443V328.7Z" fill="#FF8016"/>
<g clip-path="url(#clip2_738_2373)">
<path fill-rule="evenodd" clip-rule="evenodd" d="M281.176 353.055L278.764 354.452C278.659 354.513 278.594 354.626 278.595 354.748L278.599 356.512C278.6 356.775 278.884 356.94 279.11 356.808L281.516 355.415C281.621 355.354 281.686 355.242 281.686 355.12L281.686 353.352C281.686 353.089 281.402 352.924 281.176 353.055Z" fill="#ED1F28"/>
<path fill-rule="evenodd" clip-rule="evenodd" d="M282.78 354.683L283.967 353.996C284.194 353.864 284.193 353.536 283.967 353.404L282.784 352.715C282.558 352.583 282.274 352.746 282.274 353.008L282.269 354.385C282.269 354.649 282.553 354.815 282.78 354.683Z" fill="#021639"/>
<path fill-rule="evenodd" clip-rule="evenodd" d="M278.594 353.276L278.594 350.878C278.594 350.615 278.877 350.451 279.104 350.583L281.17 351.785C281.396 351.917 281.397 352.246 281.17 352.377L279.105 353.573C278.878 353.704 278.594 353.539 278.594 353.276Z" fill="#ED1F28"/>
</g>
</g>
<defs>
<clipPath id="clip0_738_2373">
<rect width="500" height="500" fill="white"/>
</clipPath>
<clipPath id="clip1_738_2373">
<rect width="467" height="347" fill="white" transform="translate(15 77)"/>
</clipPath>
<clipPath id="clip2_738_2373">
<rect width="8.2963" height="8" fill="white" transform="translate(276 349)"/>
</clipPath>
</defs>
</svg>
